<svg id="Layer_1" data-name="Layer 1" xmlns="http://www.w3.org/2000/svg" viewBox="0 0 311.47 125.2"><defs><style>.cls-1{fill:#020202;}.cls-2{fill:#050505;}.cls-3{fill:#010101;}.cls-4{fill:#040404;}.cls-5{fill:#030303;}.cls-6{fill:#101010;}.cls-7{fill:#0e0e0e;}</style></defs><title>logo</title><path d="M307.19,204.64c10.73-.71,10.86-.75,14,9,7.6,23.29,16.59,46.09,23.12,70.25,7.29-25.75,16.77-50.23,24.87-75.19,1.81-5.59,4.84-7.89,10.57-7.68,9.78.36,19.58.1,30.75.1-3.73-3.64-6.73-6.47-9.61-9.43-1.82-1.87-4.1-4.06-2-6.83,2.47-3.28,5.12-.82,7.09.93,4.76,4.24,9.29,8.74,13.82,13.24,2.74,2.72,2.61,6.38.22,8.63-5,4.69-8.29,10.71-12.56,15.94-1.79,2.2-3.81,5-6.72,2.71-3.13-2.46-1.32-5.34.67-7.89s4-5.46,6.78-9.23c-9.38,0-17.9-.07-26.42,0-2.53,0-2.29,2.66-2.87,4.31-9.21,26.39-18.46,52.78-27.44,79.26-1.33,3.91-3,5.26-7,5.17-3.81-.08-5.74-1-7.11-5-9.42-27.94-19.16-55.77-28.78-83.64C308.07,207.87,307.71,206.41,307.19,204.64Z" transform="translate(-110.38 -178.76)"/><path class="cls-1" d="M164.25,190.44c-3.6-3-6.76-5.51-9.85-8.14-.81-.69-1.91-1.66-1.12-2.85s2.32-.59,2.94.13c9.07,10.57,22.26,12.69,33.9,18a38.52,38.52,0,0,1,6.54,4.25c.84.62,2.77,1,1.37,2.84-1.11,1.43-2.24.71-3.33-.15a47.55,47.55,0,0,0-11.07-6.42c-1.37-.57-2.8-1-4.16-1.54-7.94-3.42-14.5-1.79-19.89,5.36-1.15,1.52-3.3,4.69-5.05,2.76-2-2.22,1.51-3.65,2.88-5.17a55.43,55.43,0,0,1,5.26-4.59c-28.1-.43-51.69,27.58-49,56.58,3.28,35.23,35.22,57,67.74,46.15.7-.23,1.36-.6,2.06-.84a2.31,2.31,0,0,1,3.15,1.52c.21,1-1.32,1.44-2.37,1.84a52.35,52.35,0,0,1-39,0c-23.8-9.27-37.44-33.44-34.48-60.92,2.56-23.78,22.15-44.06,46-47.59C159,191.35,161.31,190.93,164.25,190.44Z" transform="translate(-110.38 -178.76)"/><path class="cls-2" d="M165.57,231.34c.59,4.58-1.89,10.34,3.38,14.17.94,15.31,13.57,23.81,19.61,36.14.69,1.4,1.86,2.86.23,4-2,1.4-2.37-1-3-2.07-5.37-8-10.62-16-15.94-24-2.12-3.19-3.76-6.54-8.24-7.51a4,4,0,0,1-1.9-7.13c2.65-2.52,2.53-5.17,2.54-8.14,0-5.17,0-10.33,0-15.49,0-1.4.43-3.05,1.77-3.13,1.8-.1,1.49,1.86,1.53,3C165.64,224.43,165.57,227.68,165.57,231.34Z" transform="translate(-110.38 -178.76)"/><path class="cls-3" d="M236.55,228.74a36.55,36.55,0,0,0,5.55-.05c3.41-.52,5.27.51,6.05,4.29.74,3.53,3.56,5.79,6.56,7.32,2.63,1.34,2.35,3.23.72,4.49-2,1.57-1.54,7.36-6.34,4.49C241.62,244.82,237,238.42,236.55,228.74Z" transform="translate(-110.38 -178.76)"/><path class="cls-3" d="M264,202.71c2.32,1.84,7.29-2.78,7.69,4,.28,4.68-.45,7.1-5.74,6-3.44-.71-7,.24-10.33,1.36-1,.34-1.81,1.6-3-.47s-5.55-3.19-5-5.85,4.38-2.94,7-3.53C257.68,203.57,260.8,203.22,264,202.71Z" transform="translate(-110.38 -178.76)"/><path class="cls-1" d="M287.24,272.34c-3.78.61-6.57.4-6.93-4.26a5.75,5.75,0,0,0-2.28-3.77c-3.81-2.59-2.09-4.16-.14-7.32,3.36-5.43,5.5-3.05,8.33-.07a20.57,20.57,0,0,1,5.13,9.94C292.16,270.54,292.64,274.33,287.24,272.34Z" transform="translate(-110.38 -178.76)"/><path class="cls-1" d="M260.7,243.3c5.81,2.53,11.23,4.87,16.61,7.29,1.5.68.06,1.59-.16,2.18-1.86,4.87-5.6,6.43-10.19,4.48-2.72-1.16-5.57-2-8.18-3.39-1.27-.67-4.28-.43-3.47-2.54C256.43,248.41,258.8,246,260.7,243.3Z" transform="translate(-110.38 -178.76)"/><path class="cls-3" d="M277.67,295.52c-7.2,3.66-15.3,3.94-24.38,3.16,2.73-2.89.83-8.91,4.77-8.74C264.86,290.23,274,283.1,277.67,295.52Z" transform="translate(-110.38 -178.76)"/><path class="cls-4" d="M235.5,284.78c5.21,1.22,10.15,3.5,15.5,4,1.75.16,2.41,1.55,1.47,2.77-1.66,2.15-.09,6.31-3.92,6.89-1.22.19-2.54-.37-3.82-.58C234.84,296.13,234.4,295.52,235.5,284.78Z" transform="translate(-110.38 -178.76)"/><path class="cls-1" d="M286.51,276.07c5.72-1.43,5.73,1.43,4.08,5.74a24.67,24.67,0,0,1-3.79,6.88c-4.62,5.65-7.18,5.24-10.41-1.41-.7-1.44-.15-1.88.65-2.76,1.11-1.24,2.53-2.58,2.85-4.09C280.74,276.45,282.85,275.13,286.51,276.07Z" transform="translate(-110.38 -178.76)"/><path class="cls-5" d="M241.4,225.38c-1.27-1.25-4.48,2-4.85-2-.38-4.18,5.24-13.91,7.37-12.93,2.78,1.27,5.83,3.78,6.15,6.65.25,2.21-2.22,4.91-3.27,7.54C246.16,226.24,243.44,225,241.4,225.38Z" transform="translate(-110.38 -178.76)"/><path class="cls-4" d="M275.39,203.65c2.85.71,5.64,1.53,8.48,2.07,4.86.93,6.16,3.09,3.95,8.12-1.35,3.08-2.33,3.31-5.13,2.29C274.44,213.12,274.39,213.26,275.39,203.65Z" transform="translate(-110.38 -178.76)"/><path class="cls-6" d="M219.13,247c-2.76-.08-3.42-1.73-3.56-3.82a53.5,53.5,0,0,0-6-21.22c-.57-1.1-1.69-2.24.12-3.26s2.28.6,2.84,1.65A57.34,57.34,0,0,1,219.13,247Z" transform="translate(-110.38 -178.76)"/><path class="cls-7" d="M215.68,267.47c-.79,1.83-1.54,3.77-2.45,5.64A54.74,54.74,0,0,1,204,286.55c-.77.84-1.55,1.71-2.74.56s-.46-2,.32-2.86A56.55,56.55,0,0,0,212.24,267c.36-.91,1-1.57,2.14-1.21A1.6,1.6,0,0,1,215.68,267.47Z" transform="translate(-110.38 -178.76)"/></svg>