<svg width="125.20000000000002" height="125.20000000000002" xmlns="http://www.w3.org/2000/svg">
 <!-- <animateTransform attributeType="xml" attributeName="transform" type="rotate" from="0 155.74 62.6" to="360  155.74 62.6" dur="2s" additive="sum" repeatCount="indefinite" /> -->

 <g>
  <title>background</title>
  <rect x="-1" y="-1" width="127.2" height="127.2" id="canvas_background" fill="none"/>
 </g>
 <g>
  <title>Layer 1</title>
  <g id="svg_1">
   <path style="vector-effect: non-scaling-stroke;" id="svg_14"/>
   <g id="svg_8">
    <path id="hand" d="m62.56083,52.55778c0.61224,4.5862 0.29873,11.25799 1.69942,15.24384c0.542,9.84007 -1.15982,6.48553 -5.8087,5.51422a4.15078,4.00542 0 0 1 -1.97162,-7.13965c2.74989,-2.52341 2.62538,-5.177 2.63575,-8.15102c0,-5.177 0,-10.34398 0,-15.51096c0,-1.4019 0.44621,-3.05412 1.83672,-3.13424c1.86785,-0.10013 1.54617,1.86251 1.58768,3.00406c0.09339,3.2544 0.02075,6.50879 0.02075,10.17376l0,-0.00001z"/>
    <path d="m118.13984,68.05911c-2.86404,-0.08011 -3.54892,-1.73235 -3.6942,-3.82517a55.51675,53.57241 0 0 0 -6.22617,-21.24872c-0.59149,-1.10149 -1.7537,-2.24303 0.12453,-3.26441s2.36595,0.60082 2.94706,1.65223a59.5015,57.41762 0 0 1 6.84879,26.68607z" id="svg_2"/>
    <path d="m114.55979,88.55681c-0.81978,1.83248 -1.59805,3.77511 -2.54236,5.64763a56.80349,54.8141 0 0 1 -9.57794,13.45819c-0.79903,0.84114 -1.60843,1.71231 -2.84328,0.56076s-0.47735,-2.0027 0.33206,-2.86387a58.68172,56.62654 0 0 0 11.06185,-17.27334c0.37357,-0.91123 1.0377,-1.57212 2.22067,-1.21164a1.66031,1.60217 0 0 1 1.34901,1.68228z" id="svg_3"/>
    <path id="round" d="m61.19107,11.60241c-3.73571,-3.00406 -7.01483,-5.51745 -10.22131,-8.15102c-0.84053,-0.69094 -1.98201,-1.66225 -1.16221,-2.85386s2.40746,-0.59079 3.05083,0.13018c9.4119,10.5843 23.09911,12.70717 35.1779,18.02436a39.97205,38.57214 0 0 1 6.78654,4.25575c0.87166,0.62084 2.87442,1.00135 1.42164,2.84384c-1.15184,1.43193 -2.32444,0.71096 -3.45553,-0.1502a49.34246,47.61436 0 0 0 -11.4873,-6.42869c-1.42164,-0.57077 -2.90555,-1.00135 -4.31682,-1.54209c-8.23931,-3.42463 -15.0466,-1.79242 -20.63977,5.36725c-1.19335,1.52206 -3.4244,4.69635 -5.24037,2.76373c-2.0754,-2.22301 1.56692,-3.65494 2.98857,-5.177a57.5195,55.50502 0 0 1 5.45829,-4.59621c-29.15926,-0.43058 -53.63852,27.61733 -50.84712,56.65659c3.40365,35.27768 36.54766,57.07715 70.29354,46.21246c0.72639,-0.23031 1.41127,-0.60082 2.13766,-0.84114a2.39708,2.31313 0 0 1 3.26875,1.52206c0.21792,1.00135 -1.36976,1.44194 -2.45934,1.84249a54.3234,52.42086 0 0 1 -40.47015,0c-24.69717,-9.28255 -38.85135,-33.48527 -35.77976,-61.00246c2.6565,-23.81218 22.98497,-44.11964 47.73402,-47.65442c2.31407,-0.31041 4.71114,-0.73098 7.76197,-1.22165l-0.00002,0.00002z"/>
   </g>
  </g>
 </g>
</svg>