<svg width="108" height="108" xmlns="http://www.w3.org/2000/svg" xmlns:xlink="http://www.w3.org/1999/xlink">

 <!-- <animateTransform attributeType="xml" attributeName="transform" type="rotate" from="0 155.74 62.6" to="360  155.74 62.6" dur="2s" additive="sum" repeatCount="indefinite" /> -->
 <g>
  <title>background</title>
  <rect fill="none" id="canvas_background" height="110" width="110" y="-1" x="-1"/>
 </g>
 <g>
  <title>Layer 1</title>
  <g id="svg_1">
   <path d="m53.66317,10.08364c-3.22009,-2.58943 -6.04661,-4.75591 -8.81052,-7.02598c-0.72452,-0.59557 -1.70844,-1.43282 -1.0018,-2.45996s2.07517,-0.50925 2.62974,0.11221c8.11283,9.12341 19.91087,10.95327 30.32249,15.53656a34.45493,33.24824 0 0 1 5.84983,3.66835c0.75135,0.53515 2.47768,0.86314 1.22542,2.45132c-0.99286,1.23429 -2.00361,0.61283 -2.97858,-0.12947a42.53199,41.04241 0 0 0 -9.90177,-5.54137c-1.22542,-0.49199 -2.50451,-0.86314 -3.72099,-1.32924c-7.10208,-2.95195 -12.9698,-1.54502 -17.79098,4.62644c-1.02864,1.31198 -2.95175,4.04814 -4.51707,2.38227c-1.78894,-1.91618 1.35065,-3.15047 2.57607,-4.46245a49.5804,47.84397 0 0 1 4.70491,-3.96182c-25.13457,-0.37115 -46.23509,23.80546 -43.82897,48.83659c2.93386,30.4085 31.50319,49.19911 60.59131,39.83401c0.62613,-0.19852 1.21648,-0.51789 1.84261,-0.72504a2.06622,1.99386 0 0 1 2.81758,1.31198c0.18784,0.86314 -1.1807,1.24292 -2.11989,1.58818a46.82544,45.1855 0 0 1 -34.88428,0c-21.28836,-8.00133 -33.48891,-28.86348 -30.84128,-52.58263c2.28984,-20.52552 19.81248,-38.03005 41.14556,-41.07694c1.99467,-0.26757 4.06089,-0.63009 6.69063,-1.05303z" id="round"/>
   <path d="m54.84387,45.38616c0.52774,3.95319 0.2575,9.70411 1.46486,13.13982c0.46719,8.4819 -0.99974,5.59037 -5.00696,4.75312a3.57787,3.45257 0 0 1 -1.69949,-6.1542c2.37034,-2.17512 2.26301,-4.46245 2.27195,-7.02598c0,-4.46245 0,-8.91626 0,-13.37007c0,-1.2084 0.38462,-2.63258 1.58321,-2.70164c1.61004,-0.08631 1.33276,1.60544 1.36854,2.58943c0.0805,2.80521 0.01789,5.61042 0.01789,8.76953z" id="hand"/>
   <path id="svg_2" d="m102.75161,58.74793c-2.46873,-0.06905 -3.05908,-1.49324 -3.18431,-3.2972a47.85408,46.17811 0 0 0 -5.36681,-18.31588c-0.50985,-0.94946 -1.51165,-1.93344 0.10734,-2.81384s2.03939,0.51789 2.54029,1.42418a51.28884,49.49258 0 0 1 5.90349,23.00274z"/>
   <path id="svg_3" d="m99.6657,76.41645c-0.70663,1.57955 -1.37748,3.25405 -2.19145,4.86812a48.96322,47.24841 0 0 1 -8.25595,11.60063c-0.68874,0.72504 -1.38643,1.47597 -2.45084,0.48336s-0.41146,-1.72628 0.28623,-2.46859a50.58221,48.81069 0 0 0 9.53504,-14.8892c0.32201,-0.78546 0.89447,-1.35513 1.91416,-1.0444a1.43115,1.38103 0 0 1 1.16281,1.45008z"/>
   <polyline stroke-linecap="round" id="svg_11" points="22.44953727722168,12.325483992695808 22.294496536254883,12.170445159077644 21.984418869018555,11.705327704548836 18.108440399169922,9.534780219197273 15.627815246582031,8.75958414375782 11.906876564025879,7.984389021992683 11.286720275878906,7.3642322570085526 10.666563034057617,7.3642322570085526 " opacity="0.5" stroke-opacity="null" stroke-width="null" stroke="null" fill="none"/>
   <path d="0" id="svg_14"/>
   <use xlink:href="#hand" transform="rotate(60, 52, 60)" />
  </g>
 </g>
</svg>