<svg xmlns="http://www.w3.org/2000/svg" viewBox="0 0 311.47 125.2">
<g><path id='round' d="M164.25,190.44c-3.6-3-6.76-5.51-9.85-8.14-.81-.69-1.91-1.66-1.12-2.85s2.32-.59,2.94.13c9.07,10.57,22.26,12.69,33.9,18a38.52,38.52,0,0,1,6.54,4.25c.84.62,2.77,1,1.37,2.84-1.11,1.43-2.24.71-3.33-.15a47.55,47.55,0,0,0-11.07-6.42c-1.37-.57-2.8-1-4.16-1.54-7.94-3.42-14.5-1.79-19.89,5.36-1.15,1.52-3.3,4.69-5.05,2.76-2-2.22,1.51-3.65,2.88-5.17a55.43,55.43,0,0,1,5.26-4.59c-28.1-.43-51.69,27.58-49,56.58,3.28,35.23,35.22,57,67.74,46.15.7-.23,1.36-.6,2.06-.84a2.31,2.31,0,0,1,3.15,1.52c.21,1-1.32,1.44-2.37,1.84a52.35,52.35,0,0,1-39,0c-23.8-9.27-37.44-33.44-34.48-60.92,2.56-23.78,22.15-44.06,46-47.59C159,191.35,161.31,190.93,164.25,190.44Z" transform="translate(-110.38 -178.76)"/>
<path id='hand' d="M165.57,231.34c.59,4.58-1.89,10.34,3.38,14.17.94,15.31,13.57,23.81,19.61,36.14.69,1.4,1.86,2.86.23,4-2,1.4-2.37-1-3-2.07-5.37-8-10.62-16-15.94-24-2.12-3.19-3.76-6.54-8.24-7.51a4,4,0,0,1-1.9-7.13c2.65-2.52,2.53-5.17,2.54-8.14,0-5.17,0-10.33,0-15.49,0-1.4.43-3.05,1.77-3.13,1.8-.1,1.49,1.86,1.53,3C165.64,224.43,165.57,227.68,165.57,231.34Z" transform="translate(-110.38 -178.76)" />
<path d="M219.13,247c-2.76-.08-3.42-1.73-3.56-3.82a53.5,53.5,0,0,0-6-21.22c-.57-1.1-1.69-2.24.12-3.26s2.28.6,2.84,1.65A57.34,57.34,0,0,1,219.13,247Z" transform="translate(-110.38 -178.76)"/>
<path d="M215.68,267.47c-.79,1.83-1.54,3.77-2.45,5.64A54.74,54.74,0,0,1,204,286.55c-.77.84-1.55,1.71-2.74.56s-.46-2,.32-2.86A56.55,56.55,0,0,0,212.24,267c.36-.91,1-1.57,2.14-1.21A1.6,1.6,0,0,1,215.68,267.47Z" transform="translate(-110.38 -178.76)"/></g>
<!-- <animateTransform attributeType="xml" attributeName="transform" type="rotate" from="0 155.74 62.6" to="360  155.74 62.6" dur="2s" additive="sum" repeatCount="indefinite" /> -->
</svg>