<svg xmlns="http://www.w3.org/2000/svg" viewBox="0 0 311.47 125.2">
<path d="M236.55,228.74a36.55,36.55,0,0,0,5.55-.05c3.41-.52,5.27.51,6.05,4.29.74,3.53,3.56,5.79,6.56,7.32,2.63,1.34,2.35,3.23.72,4.49-2,1.57-1.54,7.36-6.34,4.49C241.62,244.82,237,238.42,236.55,228.74Z" transform="translate(-110.38 -178.76)"/>
<path d="M264,202.71c2.32,1.84,7.29-2.78,7.69,4,.28,4.68-.45,7.1-5.74,6-3.44-.71-7,.24-10.33,1.36-1,.34-1.81,1.6-3-.47s-5.55-3.19-5-5.85,4.38-2.94,7-3.53C257.68,203.57,260.8,203.22,264,202.71Z" transform="translate(-110.38 -178.76)"/>
<path d="M287.24,272.34c-3.78.61-6.57.4-6.93-4.26a5.75,5.75,0,0,0-2.28-3.77c-3.81-2.59-2.09-4.16-.14-7.32,3.36-5.43,5.5-3.05,8.33-.07a20.57,20.57,0,0,1,5.13,9.94C292.16,270.54,292.64,274.33,287.24,272.34Z" transform="translate(-110.38 -178.76)"/>
<path d="M260.7,243.3c5.81,2.53,11.23,4.87,16.61,7.29,1.5.68.06,1.59-.16,2.18-1.86,4.87-5.6,6.43-10.19,4.48-2.72-1.16-5.57-2-8.18-3.39-1.27-.67-4.28-.43-3.47-2.54C256.43,248.41,258.8,246,260.7,243.3Z" transform="translate(-110.38 -178.76)"/>
<path d="M277.67,295.52c-7.2,3.66-15.3,3.94-24.38,3.16,2.73-2.89.83-8.91,4.77-8.74C264.86,290.23,274,283.1,277.67,295.52Z" transform="translate(-110.38 -178.76)"/><path d="M235.5,284.78c5.21,1.22,10.15,3.5,15.5,4,1.75.16,2.41,1.55,1.47,2.77-1.66,2.15-.09,6.31-3.92,6.89-1.22.19-2.54-.37-3.82-.58C234.84,296.13,234.4,295.52,235.5,284.78Z" transform="translate(-110.38 -178.76)"/>
<path d="M286.51,276.07c5.72-1.43,5.73,1.43,4.08,5.74a24.67,24.67,0,0,1-3.79,6.88c-4.62,5.65-7.18,5.24-10.41-1.41-.7-1.44-.15-1.88.65-2.76,1.11-1.24,2.53-2.58,2.85-4.09C280.74,276.45,282.85,275.13,286.51,276.07Z" transform="translate(-110.38 -178.76)"/><path d="M241.4,225.38c-1.27-1.25-4.48,2-4.85-2-.38-4.18,5.24-13.91,7.37-12.93,2.78,1.27,5.83,3.78,6.15,6.65.25,2.21-2.22,4.91-3.27,7.54C246.16,226.24,243.44,225,241.4,225.38Z" transform="translate(-110.38 -178.76)"/>
<path d="M275.39,203.65c2.85.71,5.64,1.53,8.48,2.07,4.86.93,6.16,3.09,3.95,8.12-1.35,3.08-2.33,3.31-5.13,2.29C274.44,213.12,274.39,213.26,275.39,203.65Z" transform="translate(-110.38 -178.76)"/>
</svg>