<svg xmlns="http://www.w3.org/2000/svg" viewBox="0 0 311.47 125.2">
<path d="M307.19,204.64c10.73-.71,10.86-.75,14,9,7.6,23.29,16.59,46.09,23.12,70.25,7.29-25.75,16.77-50.23,24.87-75.19,1.81-5.59,4.84-7.89,10.57-7.68,9.78.36,19.58.1,30.75.1-3.73-3.64-6.73-6.47-9.61-9.43-1.82-1.87-4.1-4.06-2-6.83,2.47-3.28,5.12-.82,7.09.93,4.76,4.24,9.29,8.74,13.82,13.24,2.74,2.72,2.61,6.38.22,8.63-5,4.69-8.29,10.71-12.56,15.94-1.79,2.2-3.81,5-6.72,2.71-3.13-2.46-1.32-5.34.67-7.89s4-5.46,6.78-9.23c-9.38,0-17.9-.07-26.42,0-2.53,0-2.29,2.66-2.87,4.31-9.21,26.39-18.46,52.78-27.44,79.26-1.33,3.91-3,5.26-7,5.17-3.81-.08-5.74-1-7.11-5-9.42-27.94-19.16-55.77-28.78-83.64C308.07,207.87,307.71,206.41,307.19,204.64Z" transform="translate(-110.38 -178.76)"/>
</svg>